<?xml version="1.0" standalone="no"?>
<!DOCTYPE svg PUBLIC "-//W3C//DTD SVG 20010904//EN"
 "http://www.w3.org/TR/2001/REC-SVG-20010904/DTD/svg10.dtd">
<svg version="1.0" xmlns="http://www.w3.org/2000/svg"
 width="159.000000pt" height="282.000000pt" viewBox="0 0 159.000000 282.000000"
 preserveAspectRatio="xMidYMid meet">

<g transform="translate(0.000000,282.000000) scale(0.100000,-0.100000)"
fill="#000000" stroke="none">
<path d="M685 2708 c-78 -53 -90 -76 -89 -169 1 -47 6 -85 14 -94 10 -12 10
-15 -1 -15 -11 0 -11 -2 1 -10 13 -8 16 1 21 58 3 43 14 86 30 117 l24 49 105
-1 c99 -1 105 -2 127 -27 32 -37 44 -94 41 -184 -3 -69 -5 -77 -24 -80 -11 -2
-27 5 -36 15 -13 14 -29 17 -77 15 -34 -2 -59 -8 -55 -13 8 -14 -5 -29 -21
-23 -8 3 -11 12 -7 22 4 13 -1 11 -22 -6 -41 -31 -65 -29 -72 8 -4 17 -10 30
-15 30 -5 0 -9 -2 -9 -6 0 -20 34 -151 41 -158 5 -6 9 -18 9 -28 0 -9 16 -33
35 -52 19 -20 35 -42 35 -50 0 -14 55 -36 91 -36 17 0 29 19 29 48 0 10 9 23
20 30 11 7 20 19 20 27 0 9 14 39 30 69 24 43 33 77 47 177 21 154 20 195 -5
228 -33 45 -101 79 -172 86 -63 6 -68 5 -115 -27z m195 -348 c0 -5 -4 -10 -10
-10 -5 0 -10 5 -10 10 0 6 5 10 10 10 6 0 10 -4 10 -10z m-24 -55 c16 -13 17
-16 4 -25 -8 -6 -34 -9 -57 -8 -48 3 -56 -7 -18 -24 28 -13 24 -28 -9 -28 -29
0 -46 18 -46 50 0 43 84 67 126 35z m24 -59 c0 -17 -25 -27 -46 -19 -14 5 -12
8 7 19 31 17 39 17 39 0z"/>
<path d="M705 2510 c-3 -5 3 -10 14 -10 12 0 21 -7 21 -16 0 -10 -6 -13 -19
-9 -10 3 -24 -1 -31 -10 -10 -12 -10 -15 4 -15 10 0 14 -4 11 -10 -4 -6 6 -10
22 -10 22 0 25 2 13 10 -8 5 -10 10 -5 11 6 1 15 2 20 4 6 1 16 3 23 3 15 2
16 34 0 50 -15 15 -64 16 -73 2z"/>
<path d="M840 2501 c-16 -32 -12 -46 21 -65 27 -16 34 -16 55 -5 29 15 27 29
-7 46 l-24 13 24 0 c20 0 21 2 11 15 -18 22 -67 19 -80 -4z"/>
<path d="M890 2099 c0 -18 -7 -28 -20 -32 -11 -3 -20 -12 -20 -21 0 -18 15
-21 25 -6 5 8 12 7 22 -1 12 -10 16 -10 24 2 13 21 11 34 -11 60 l-19 24 -1
-26z"/>
<path d="M708 2065 c-3 -14 -1 -25 3 -25 5 0 9 -9 9 -19 0 -22 60 -61 93 -61
21 1 20 2 -8 26 -16 13 -34 28 -40 33 -17 15 -49 56 -46 59 1 2 1 6 -2 8 -2 3
-7 -7 -9 -21z"/>
<path d="M399 2049 c14 -5 30 -13 36 -17 6 -4 2 1 -8 11 -11 9 -27 17 -36 16
-10 0 -7 -4 8 -10z"/>
<path d="M460 2013 c0 -6 5 -15 11 -19 6 -3 22 -30 35 -58 23 -48 35 -44 15 6
-13 30 -60 86 -61 71z"/>
<path d="M863 1942 c-19 -12 -44 -80 -33 -87 9 -6 15 16 11 39 -1 5 5 6 13 3
14 -6 46 26 46 45 0 10 -21 10 -37 0z"/>
<path d="M920 1935 c0 -8 5 -15 10 -15 6 0 10 7 10 15 0 8 -4 15 -10 15 -5 0
-10 -7 -10 -15z"/>
<path d="M550 1884 c0 -14 -3 -23 -7 -21 -5 3 -8 -23 -8 -58 0 -35 3 -61 8
-58 4 2 7 11 7 20 0 8 8 37 17 62 16 47 13 81 -7 81 -5 0 -10 -12 -10 -26z
m14 -28 c-3 -15 -8 -25 -11 -23 -2 3 -1 17 3 31 3 15 8 25 11 23 2 -3 1 -17
-3 -31z"/>
<path d="M1066 1845 c8 -37 14 -45 14 -19 0 10 -5 26 -10 34 -8 11 -9 7 -4
-15z"/>
<path d="M435 1820 c10 -11 20 -20 23 -20 3 0 -3 9 -13 20 -10 11 -20 20 -23
20 -3 0 3 -9 13 -20z"/>
<path d="M1165 1820 c-3 -5 -13 -7 -23 -4 -14 5 -15 4 -2 -5 12 -8 11 -13 -8
-34 -12 -13 -22 -29 -22 -37 0 -8 11 2 25 21 14 19 36 42 48 51 18 14 19 18 5
18 -9 0 -19 -4 -23 -10z"/>
<path d="M830 1765 c0 -8 5 -15 10 -15 6 0 10 7 10 15 0 8 -4 15 -10 15 -5 0
-10 -7 -10 -15z"/>
<path d="M1071 1744 c0 -11 3 -14 6 -6 3 7 2 16 -1 19 -3 4 -6 -2 -5 -13z"/>
<path d="M1030 1740 c0 -5 5 -10 10 -10 6 0 10 5 10 10 0 6 -4 10 -10 10 -5 0
-10 -4 -10 -10z"/>
<path d="M555 1703 c13 -55 27 -83 45 -83 17 0 16 4 -6 49 -28 59 -48 76 -39
34z"/>
<path d="M821 1703 c-1 -34 11 -41 39 -22 12 8 10 9 -7 4 -18 -5 -22 -1 -26
22 -4 27 -4 26 -6 -4z"/>
<path d="M1092 1683 c-8 -21 -16 -50 -19 -65 -3 -16 -7 -28 -9 -28 -11 0 -53
53 -49 61 4 5 2 9 -4 9 -6 0 -14 -15 -19 -32 -8 -30 -6 -34 19 -41 30 -8 79
-60 79 -83 0 -8 8 -14 18 -14 13 0 14 2 4 9 -19 12 -27 115 -12 160 16 51 9
72 -8 24z"/>
<path d="M646 1683 c-4 -13 -4 -28 1 -35 4 -7 6 -21 5 -30 -2 -11 3 -18 13
-18 16 0 15 4 -5 80 l-7 25 -7 -22z"/>
<path d="M260 1669 c0 -5 5 -7 10 -4 6 3 10 8 10 11 0 2 -4 4 -10 4 -5 0 -10
-5 -10 -11z"/>
<path d="M290 1665 c-19 -23 -8 -26 19 -4 16 13 18 19 8 19 -8 0 -20 -7 -27
-15z"/>
<path d="M480 1649 c18 -15 20 -19 7 -15 -10 3 -31 6 -45 7 -24 0 -25 1 -7 9
16 7 14 9 -15 9 -42 1 -96 -30 -112 -64 -6 -13 -15 -22 -19 -19 -16 10 -9 -13
12 -40 18 -23 18 -27 5 -32 -9 -3 -16 -10 -16 -16 0 -5 5 -6 10 -3 6 3 10 -2
11 -12 0 -10 7 2 15 27 17 56 17 70 0 47 -22 -28 -28 -3 -10 36 16 33 59 67
85 67 8 0 5 -8 -7 -22 -12 -13 -13 -18 -4 -13 23 14 42 15 81 5 23 -7 45 -7
60 -1 13 5 18 10 11 10 -8 1 -25 10 -39 21 -34 27 -55 25 -23 -1z"/>
<path d="M1278 1543 c7 -3 16 -2 19 1 4 3 -2 6 -13 5 -11 0 -14 -3 -6 -6z"/>
<path d="M419 1503 l-24 -28 30 25 c17 14 32 26 34 28 2 1 0 2 -6 2 -5 0 -20
-12 -34 -27z"/>
<path d="M1188 1523 c7 -3 16 -2 19 1 4 3 -2 6 -13 5 -11 0 -14 -3 -6 -6z"/>
<path d="M1280 1490 c34 -33 50 -40 29 -12 -17 23 -41 42 -51 42 -5 0 5 -13
22 -30z"/>
<path d="M990 1496 c-25 -7 -76 -24 -115 -38 -97 -36 -140 -44 -218 -40 -61 3
-67 6 -62 23 6 17 1 19 -47 19 -36 0 -64 -7 -87 -21 -19 -12 -45 -19 -58 -16
-26 5 -28 -1 -12 -37 10 -21 16 -24 42 -19 26 5 29 4 24 -11 -5 -14 -3 -15 13
-6 17 9 18 7 13 -26 -5 -28 -2 -40 11 -50 10 -7 15 -17 11 -23 -3 -6 0 -9 8
-5 8 3 18 1 22 -5 9 -16 48 -13 112 9 61 20 132 26 172 14 18 -5 22 -4 17 5
-5 8 4 7 29 -3 21 -9 50 -16 64 -16 15 0 36 -7 47 -15 18 -14 18 -14 -4 -15
-14 0 -21 -4 -17 -11 4 -6 23 -9 43 -7 22 2 37 -2 40 -10 8 -24 22 -1 22 36 0
25 3 32 9 23 6 -9 10 -10 12 -2 2 6 33 16 69 21 102 16 104 17 137 63 40 55
49 89 30 106 -13 10 -15 6 -15 -23 0 -18 -3 -44 -7 -55 -6 -20 -8 -19 -34 16
-34 46 -71 80 -71 65 0 -6 14 -24 31 -40 l32 -30 -26 -17 c-21 -14 -30 -14
-49 -4 -31 17 -234 26 -224 10 4 -6 16 -11 26 -11 31 0 33 -19 3 -27 -62 -16
-203 3 -203 28 0 5 4 9 9 9 4 0 24 11 43 24 20 13 75 41 124 61 103 44 101 43
88 54 -5 5 -28 4 -54 -3z"/>
<path d="M878 1103 c7 -3 16 -2 19 1 4 3 -2 6 -13 5 -11 0 -14 -3 -6 -6z"/>
<path d="M840 1026 c0 -2 17 -14 38 -26 l37 -22 -24 26 c-21 22 -51 35 -51 22z"/>
<path d="M680 984 c0 -2 16 -10 36 -19 19 -8 33 -19 30 -24 -3 -5 19 -9 52 -9
61 0 47 16 -15 17 -18 1 -33 5 -33 9 0 5 -16 13 -35 19 -19 6 -35 9 -35 7z"/>
<path d="M930 967 c8 -9 33 -18 55 -21 l40 -6 -35 11 c-19 6 -44 15 -55 21
-18 9 -18 9 -5 -5z"/>
<path d="M688 943 c7 -3 16 -2 19 1 4 3 -2 6 -13 5 -11 0 -14 -3 -6 -6z"/>
<path d="M663 893 c9 -2 25 -2 35 0 9 3 1 5 -18 5 -19 0 -27 -2 -17 -5z"/>
<path d="M280 847 c0 -11 50 -80 62 -85 4 -2 8 -15 8 -28 0 -14 -4 -23 -9 -19
-6 3 -13 -11 -16 -32 -3 -21 -13 -72 -22 -113 -9 -41 -17 -89 -17 -107 -1 -17
-4 -29 -8 -26 -11 6 -10 -18 4 -76 6 -28 15 -51 20 -51 4 0 8 -9 8 -21 0 -11
-4 -17 -10 -14 -6 4 -10 -11 -10 -37 0 -24 -3 -61 -6 -83 -4 -32 -3 -37 6 -25
9 12 10 6 4 -25 -4 -22 -7 -50 -7 -62 1 -13 -3 -23 -9 -23 -5 0 -7 -4 -3 -9 3
-6 79 -9 177 -8 l172 2 7 25 7 25 1 -27 1 -28 140 0 c118 0 140 2 140 15 0 8
4 15 9 15 11 0 34 68 56 165 9 39 39 129 66 202 34 92 49 146 49 180 l0 49
-137 -4 c-123 -3 -149 -1 -236 22 -132 34 -254 87 -359 156 -49 32 -88 53 -88
47z m50 -296 c0 -6 -4 -13 -10 -16 -5 -3 -10 1 -10 9 0 9 5 16 10 16 6 0 10
-4 10 -9z m-10 -55 c0 -2 -7 -9 -15 -16 -13 -11 -14 -10 -9 4 5 14 24 23 24
12z"/>
<path d="M597 795 c45 -19 242 -67 256 -62 7 3 -1 8 -18 11 -16 4 -41 12 -54
17 -28 12 -186 49 -204 49 -7 -1 3 -7 20 -15z"/>
<path d="M830 791 c-27 -3 -14 -7 55 -16 92 -11 152 -6 80 6 -74 14 -100 15
-135 10z"/>
<path d="M660 709 c70 -28 175 -50 264 -54 55 -3 98 -3 95 0 -3 3 -59 12 -125
20 -65 7 -145 21 -177 29 -65 18 -95 20 -57 5z"/>
<path d="M958 703 c6 -2 18 -2 25 0 6 3 1 5 -13 5 -14 0 -19 -2 -12 -5z"/>
</g>
</svg>
